# File created by Blade
# Date/Time:  Wed Apr 08 17:39:41 2015
#---------------------------------------------------------
:version 1.10
:name HOM
:units
  mass 1.0
  length 1.000000
  angle deg
:documentation
     Acclaim Skeleton File
:root
   axis xyz
   order TX TY TZ RX RY RZ
   position 0.000000 0.000000 0.000000
   orientation 0 0 0
:bonedata
   begin
      id 1
      name Spine_dum
      direction 0.000000 1.000000 0.000000
      length 5.893853
      axis 0.0 0.0 0.0 xyz
   end
   begin
      id 2
      name LeftUpLeg_dum
      direction 1.000000 0.000000 0.000000
      length 3.697939
      axis 0.0 0.0 0.0 xyz
   end
   begin
      id 3
      name RightUpLeg_dum
      direction -1.000000 0.000000 0.000000
      length 3.697939
      axis 0.0 0.0 0.0 xyz
   end
   begin
      id 4
      name Spine
      direction 0.000000 1.000000 0.000000
      length 0.000000
      axis 0.0 0.0 0.0 xyz
      dof rx ry rz
   end
   begin
      id 5
      name Spine_dum1
      direction 0.000000 1.000000 0.000000
      length 16.447146
      axis 0.0 0.0 0.0 xyz
   end
   begin
      id 6
      name Spine_dum2
      direction 0.000000 1.000000 0.000000
      length 10.900383
      axis 0.0 0.0 0.0 xyz
   end
   begin
      id 7
      name Spine_dum3
      direction 0.000000 1.000000 0.000000
      length 10.900383
      axis 0.0 0.0 0.0 xyz
   end
   begin
      id 8
      name Head
      direction 0.000000 1.000000 0.000000
      length 4.527550
      axis 0.0 0.0 0.0 xyz
      dof rx ry rz
   end
   begin
      id 9
      name LeftShoulder
      direction 1.000000 0.000000 0.000000
      length 8.219464
      axis 0.0 0.0 -90.0 xyz
      dof rx ry rz
   end
   begin
      id 10
      name LeftArm
      direction 1.000000 0.000000 0.000000
      length 11.094937
      axis 0.0 0.0 -90.0 xyz
      dof rx ry rz
   end
   begin
      id 11
      name LeftForeArm
      direction 1.000000 0.000000 0.000000
      length 9.103875
      axis 0.0 0.0 -90.0 xyz
      dof ry rz rx
   end
   begin
      id 12
      name LeftHand
      direction 0.000000 0.000000 0.000000
      length 0.000000
      axis 0.0 0.0 -90.0 xyz
      dof rx ry rz
   end
   begin
      id 13
      name LeftHand_dum1
      direction 0.000000 0.000000 0.000000
      length 0.000000
      axis 0.0 0.0 -90.0 xyz
   end
   begin
      id 14
      name LeftHand_dum2
      direction 1.000000 0.000000 0.000000
      length 3.937000
      axis 0.0 0.0 -90.0 xyz
   end
   begin
      id 15
      name LeftHandThumb1
      direction 0.000000 0.000000 1.000000
      length 3.937000
      axis 0.0 0.0 -90.0 xyz
      dof rx rz ry
   end
   begin
      id 16
      name RightShoulder
      direction -1.000000 0.000000 0.000000
      length 8.219464
      axis 0.0 0.0 90.0 xyz
      dof rx ry rz
   end
   begin
      id 17
      name RightArm
      direction -1.000000 0.000000 0.000000
      length 11.094937
      axis 0.0 0.0 90.0 xyz
      dof rx ry rz
   end
   begin
      id 18
      name RightForeArm
      direction -1.000000 0.000000 0.000000
      length 9.103875
      axis 0.0 0.0 90.0 xyz
      dof ry rz rx
   end
   begin
      id 19
      name RightHand
      direction 0.000000 0.000000 0.000000
      length 0.000000
      axis 0.0 0.0 90.0 xyz
      dof rx ry rz
   end
   begin
      id 20
      name RightHand_dum1
      direction 0.000000 0.000000 0.000000
      length 0.000000
      axis 0.0 0.0 90.0 xyz
   end
   begin
      id 21
      name RightHand_dum2
      direction -1.000000 0.000000 0.000000
      length 3.937000
      axis 0.0 0.0 90.0 xyz
   end
   begin
      id 22
      name RightHandThumb1
      direction 0.000000 0.000000 1.000000
      length 3.937000
      axis 0.0 0.0 90.0 xyz
      dof rx rz ry
   end
   begin
      id 23
      name LeftUpLeg
      direction 0.000000 -1.000000 0.000000
      length 16.181467
      axis 0.0 0.0 0.0 xyz
      dof rx ry rz
   end
   begin
      id 24
      name LeftLeg
      direction 0.000000 -1.000000 0.000000
      length 16.501392
      axis 0.0 0.0 0.0 xyz
      dof rx ry rz
   end
   begin
      id 25
      name LeftFoot
      direction 0.000000 -0.258819 0.965926
      length 6.408245
      axis 15.0 0.0 0.0 xyz
      dof rx ry rz
   end
   begin
      id 26
      name LeftToeBase
      direction 0.000000 0.000000 1.000000
      length 2.952750
      axis 0.0 0.0 0.0 xyz
      dof rx ry rz
   end
   begin
      id 27
      name RightUpLeg
      direction 0.000000 -1.000000 0.000000
      length 16.181467
      axis 0.0 0.0 0.0 xyz
      dof rx ry rz
   end
   begin
      id 28
      name RightLeg
      direction 0.000000 -1.000000 0.000000
      length 16.501392
      axis 0.0 0.0 0.0 xyz
      dof rx ry rz
   end
   begin
      id 29
      name RightFoot
      direction 0.000000 -0.258819 0.965926
      length 6.408245
      axis 15.0 0.0 0.0 xyz
      dof rx ry rz
   end
   begin
      id 30
      name RightToeBase
      direction 0.000000 0.000000 1.000000
      length 2.952750
      axis 0.0 0.0 0.0 xyz
      dof rx ry rz
   end
:hierarchy
   begin
      root Spine_dum LeftUpLeg_dum RightUpLeg_dum
      Spine_dum Spine
      LeftUpLeg_dum LeftUpLeg
      RightUpLeg_dum RightUpLeg
      Spine Spine_dum1 Spine_dum2 Spine_dum3
      Spine_dum1 Head
      Spine_dum2 LeftShoulder
      Spine_dum3 RightShoulder
      LeftShoulder LeftArm
      LeftArm LeftForeArm
      LeftForeArm LeftHand
      LeftHand LeftHand_dum1 LeftHand_dum2
      LeftHand_dum1 LeftHandThumb1
      RightShoulder RightArm
      RightArm RightForeArm
      RightForeArm RightHand
      RightHand RightHand_dum1 RightHand_dum2
      RightHand_dum1 RightHandThumb1
      LeftUpLeg LeftLeg
      LeftLeg LeftFoot
      LeftFoot LeftToeBase
      RightUpLeg RightLeg
      RightLeg RightFoot
      RightFoot RightToeBase
   end

# File created by Blade
# Date/Time:  Wed Apr 08 17:39:35 2015
# Frame Rate: 120.000 fps
#------------------------------------------------------
:FULLY-SPECIFIED
:DEGREES
654
root 7.645813 35.969311 3.334337 18.916287 -59.955955 -360.131263
Spine -21.981609 -5.527627 -2.964292
Head 41.726058 15.143153 14.160693
LeftShoulder -10.560939 23.737981 11.766995
LeftArm 17.136056 13.915137 -77.228794
LeftForeArm 18.906459 -0.000000 21.402407
LeftHand -12.889300 -0.000000 -11.554439
LeftHandThumb1 -26.253704 0.000000 33.147579
RightShoulder -38.190880 -51.141907 19.120988
RightArm 53.663761 -15.176085 49.779951
RightForeArm 4.949098 0.000000 21.214993
RightHand -2.621968 -0.000000 26.923459
RightHandThumb1 -24.326973 -0.000000 -32.862282
LeftUpLeg -23.530344 3.730314 -8.623657
LeftLeg 18.248018 -0.000000 -0.000000
LeftFoot -15.856168 5.104772 -4.429899
LeftToeBase 9.476922 -0.000000 -0.000000
RightUpLeg -81.601726 -4.591940 15.366863
RightLeg 75.236558 -0.000000 -0.000000
RightFoot 34.281923 -16.964456 30.216892
RightToeBase 20.850241 -0.000000 -0.000000
655
root 7.652313 35.983153 3.328380 19.270416 -59.767535 -360.323553
Spine -22.189284 -5.669295 -2.820479
Head 41.753057 15.023477 14.115115
LeftShoulder -10.509292 23.700413 11.786739
LeftArm 17.235673 13.953632 -77.228896
LeftForeArm 18.834825 -0.000000 21.454799
LeftHand -12.905671 -0.000000 -11.452089
LeftHandThumb1 -26.253704 0.000000 33.147579
RightShoulder -38.349958 -51.241526 19.218917
RightArm 53.568348 -15.275527 49.811507
RightForeArm 5.153424 -0.000000 21.231219
RightHand -2.572747 -0.000000 26.913229
RightHandThumb1 -24.326973 -0.000000 -32.862282
LeftUpLeg -23.754659 3.771209 -8.523656
LeftLeg 18.284282 -0.000000 -0.000000
LeftFoot -15.835130 4.777228 -4.820449
LeftToeBase 9.590098 -0.000000 -0.000000
RightUpLeg -81.866678 -4.776800 15.751795
RightLeg 75.320488 -0.000000 -0.000000
RightFoot 34.173069 -17.181267 30.193816
RightToeBase 21.107700 -0.000000 -0.000000
656
root 7.660943 36.001230 3.314142 19.879029 -59.539688 -360.644821
Spine -22.566504 -5.815161 -2.585861
Head 41.781809 14.896437 14.071936
LeftShoulder -10.483788 23.673730 11.830198
LeftArm 17.328240 14.041438 -77.249249
LeftForeArm 18.799809 -0.000000 21.523905
LeftHand -12.915349 -0.000000 -11.448744
LeftHandThumb1 -26.253704 0.000000 33.147579
RightShoulder -38.526169 -51.326030 19.317716
RightArm 53.490512 -15.441300 49.747613
RightForeArm 5.241143 -0.000000 21.240540
RightHand -2.491753 -0.000000 26.817708
RightHandThumb1 -24.326973 -0.000000 -32.862282
LeftUpLeg -24.135240 3.885884 -8.392778
LeftLeg 18.302849 -0.000000 -0.000000
LeftFoot -15.842181 4.561192 -4.657873
LeftToeBase 10.033766 -0.000000 -0.000000
RightUpLeg -82.253668 -4.897526 16.174327
RightLeg 75.304196 -0.000000 -0.000000
RightFoot 34.132653 -17.339981 30.294885
RightToeBase 21.034364 -0.000000 -0.000000
657
root 7.660704 36.016688 3.313050 20.210179 -59.436921 -360.869568
Spine -22.743945 -5.821145 -2.485018
Head 41.826902 14.753318 14.078870
LeftShoulder -10.421503 23.627513 11.894881
LeftArm 17.425577 14.098951 -77.278244
LeftForeArm 18.864913 -0.000000 21.606879
LeftHand -12.951024 -0.000000 -11.350024
LeftHandThumb1 -26.253704 0.000000 33.147579
RightShoulder -38.675168 -51.390960 19.421159
RightArm 53.369291 -15.572149 49.781918
RightForeArm 5.266626 -0.000000 21.192219
RightHand -2.375779 -0.000000 26.658288
RightHandThumb1 -24.326973 -0.000000 -32.862282
LeftUpLeg -24.278834 3.846211 -8.246731
LeftLeg 18.311666 -0.000000 -0.000000
LeftFoot -15.802879 4.365595 -5.060946
LeftToeBase 10.018511 -0.000000 -0.000000
RightUpLeg -82.462484 -4.977372 16.447466
RightLeg 75.301662 -0.000000 -0.000000
RightFoot 34.052558 -17.498512 30.542562
RightToeBase 21.229745 -0.000000 -0.000000
658
root 7.661697 36.030667 3.315905 20.464900 -59.397492 -361.061397
Spine -22.853500 -5.770861 -2.439535
Head 41.834971 14.604077 14.111845
LeftShoulder -10.374199 23.587092 11.964420
LeftArm 17.521752 14.116056 -77.332263
LeftForeArm 18.792634 -0.000000 21.746556
LeftHand -12.967258 -0.000000 -11.338150
LeftHandThumb1 -26.253704 0.000000 33.147579
RightShoulder -38.806529 -51.433336 19.519080
RightArm 53.271201 -15.726849 49.759137
RightForeArm 5.289298 -0.000000 21.139692
RightHand -2.272984 -0.000000 26.391823
RightHandThumb1 -24.326973 -0.000000 -32.862282
LeftUpLeg -24.377628 3.844700 -8.145044
LeftLeg 18.324049 -0.000000 -0.000000
LeftFoot -15.800845 4.275863 -5.303483
LeftToeBase 10.192493 -0.000000 -0.000000
RightUpLeg -82.633447 -5.012565 16.635342
RightLeg 75.270474 -0.000000 -0.000000
RightFoot 34.011261 -17.610197 30.783974
RightToeBase 21.316997 -0.000000 -0.000000
659
root 7.663524 36.044843 3.317087 20.722263 -59.337184 -361.263816
Spine -22.957598 -5.726768 -2.387716
Head 41.855568 14.471324 14.167113
LeftShoulder -10.314400 23.521879 12.057029
LeftArm 17.590853 14.177891 -77.392463
LeftForeArm 18.790027 0.000000 21.902598
LeftHand -12.893889 -0.000000 -11.247461
LeftHandThumb1 -26.253704 0.000000 33.147579
RightShoulder -38.908014 -51.478849 19.616919
RightArm 53.110272 -15.805325 49.836754
RightForeArm 5.109566 -0.000000 21.121768
RightHand -2.157968 -0.000000 26.148106
RightHandThumb1 -24.326973 -0.000000 -32.862282
LeftUpLeg -24.464126 3.901754 -8.047773
LeftLeg 18.317685 -0.000000 -0.000000
LeftFoot -15.811374 4.131913 -5.464969
LeftToeBase 10.487689 -0.000000 -0.000000
RightUpLeg -82.807603 -5.047503 16.818926
RightLeg 75.199570 -0.000000 -0.000000
RightFoot 33.850343 -17.800985 30.962700
RightToeBase 22.176525 -0.000000 -0.000000
660
root 7.672691 36.066537 3.301659 21.365788 -59.149577 -361.608898
Spine -23.351630 -5.799137 -2.183747
Head 41.870538 14.329458 14.209084
LeftShoulder -10.326559 23.524956 12.121445
LeftArm 17.704645 14.311426 -77.420875
LeftForeArm 18.808284 0.000000 22.105865
LeftHand -12.947675 -0.000000 -11.257128
LeftHandThumb1 -26.253704 0.000000 33.147579
RightShoulder -39.060224 -51.561209 19.747997
RightArm 53.027585 -15.982848 49.693844
RightForeArm 5.127037 -0.000000 21.148955
RightHand -2.100893 -0.000000 25.787799
RightHandThumb1 -24.326973 -0.000000 -32.862282
LeftUpLeg -24.861123 4.002960 -7.893967
LeftLeg 18.331226 -0.000000 -0.000000
LeftFoot -15.763384 3.868464 -5.534864
LeftToeBase 10.734017 -0.000000 -0.000000
RightUpLeg -83.239609 -5.045930 17.106120
RightLeg 75.042341 -0.000000 -0.000000
RightFoot 33.606589 -18.182207 31.174603
RightToeBase 21.752760 -0.000000 -0.000000
